# xmcd CD database file
#
# Track frame offsets:
#	150
#	13145
#	24932
#	36227
#	48082
#	58982
#	70847
#	80912
#	91420
#	102587
#	114415
#	124827
#	135682
#	148422
#	159037
#	170225
#	180855
#	191162
#
# Disc length: 2689 seconds
#
# Revision: 8
# Processed by: cddbd v1.4PL0 Copyright (c) Steve Scherf et al.
# Submitted via: CDex 1.40Release
#
DISCID=010a7f12
DTITLE=Robert Johnson - The Blues CD-2
DYEAR=1900
DGENRE=Blues
TTITLE0=Preaching Blues
TTITLE1=If I Had Possession Over Judgment Day
TTITLE2=Stones In My Passway
TTITLE3=I'm A Steady Rolling Man
TTITLE4=From Four Till Late
TTITLE5=Hellhound On My Trail
TTITLE6=Little Queen Of Spades
TTITLE7=Malted Milk
TTITLE8=Drunken Hearted Men
TTITLE9=Me And The Devil Blues
TTITLE10=Stop Breaking Down Take 1
TTITLE11=Stop Breaking Down Take 2
TTITLE12=Traveling Riverside Blues
TTITLE13=Honeymoon Blues
TTITLE14=Love In Vain Take 1
TTITLE15=Love In Vain Take 4
TTITLE16=Milkcow's Calf Blues Take 2
TTITLE17=Milkcow's Calf Blues Take 3
EXTD=ID3G: 0
EXTT0=
EXTT1=
EXTT2=
EXTT3=
EXTT4=
EXTT5=
EXTT6=
EXTT7=
EXTT8=
EXTT9=
EXTT10=
EXTT11=
EXTT12=
EXTT13=
EXTT14=
EXTT15=
EXTT16=
EXTT17=
PLAYORDER=
